HIERARCHY
ROOT Hips
{
	OFFSET -3.958830 18.904000 13.208200
	CHANNELS 6 Xposition Yposition Zposition Zrotation Yrotation Xrotation 
	JOINT LHipJoint
	{
		OFFSET 0.000000 0.000000 0.000000
		CHANNELS 3 Zrotation Yrotation Xrotation
		JOINT LeftUpLeg
		{
			OFFSET 1.800000 -1.400000 0.085000
			CHANNELS 3 Zrotation Yrotation Xrotation
			JOINT LeftLeg
			{
				OFFSET 2.215000 -6.000000 0.000000
				CHANNELS 3 Zrotation Yrotation Xrotation
				JOINT LeftFoot
				{
					OFFSET 2.500000 -6.900000 0.000000
					CHANNELS 3 Zrotation Yrotation Xrotation
					JOINT LeftToeBase
					{
						OFFSET 0.200000 -0.500000 1.950000
						CHANNELS 3 Zrotation Yrotation Xrotation
						End Site
						{
							OFFSET 0.000000 0.000000 0.000000
						}
					}
				}
			}
		}
	}
	JOINT RHipJoint
	{
		OFFSET 0.000000 0.000000 0.000000
		CHANNELS 3 Zrotation Yrotation Xrotation
		JOINT RightUpLeg
		{
			OFFSET -1.800000 -1.400000 0.085000
			CHANNELS 3 Zrotation Yrotation Xrotation
			JOINT RightLeg
			{
				OFFSET -2.215000 -6.000000 0.000000
				CHANNELS 3 Zrotation Yrotation Xrotation
				JOINT RightFoot
				{
					OFFSET -2.500000 -6.900000 0.000000
					CHANNELS 3 Zrotation Yrotation Xrotation
					JOINT RightToeBase
					{
						OFFSET -0.200000 -0.500000 1.950000
						CHANNELS 3 Zrotation Yrotation Xrotation
						End Site
						{
							OFFSET 0.000000 0.000000 0.000000
						}
					}
				}
			}
		}
	}
	JOINT LowerBack
	{
		OFFSET 0.000000 0.000000 0.000000
		CHANNELS 3 Zrotation Yrotation Xrotation
		JOINT Spine
		{
			OFFSET -0.087000 1.940000 -0.288900
			CHANNELS 3 Zrotation Yrotation Xrotation
			JOINT Spine1
			{
				OFFSET 0.000000 1.950000 0.060000
				CHANNELS 3 Zrotation Yrotation Xrotation
				JOINT Neck
				{
					OFFSET 0.000000 0.000000 0.000000
					CHANNELS 3 Zrotation Yrotation Xrotation
					JOINT Neck1
					{
						OFFSET 0.000000 1.600000 0.340000
						CHANNELS 3 Zrotation Yrotation Xrotation
						JOINT Head
						{
							OFFSET 0.000000 1.667000 -0.240000
							CHANNELS 3 Zrotation Yrotation Xrotation
							End Site
							{
								OFFSET 0.000000 0.000000 0.000000
							}
						}
					}
				}
				JOINT LeftShoulder
				{
					OFFSET 0.000000 0.000000 0.000000
					CHANNELS 3 Zrotation Yrotation Xrotation
					JOINT LeftArm
					{
						OFFSET 2.700000 1.550000 -0.730000
						CHANNELS 3 Zrotation Yrotation Xrotation
						JOINT LeftForeArm
						{
							OFFSET 5.450000 0.000000 0.000000
							CHANNELS 3 Zrotation Yrotation Xrotation
							JOINT LeftHand
							{
								OFFSET 3.450000 0.000000 0.000000
								CHANNELS 3 Zrotation Yrotation Xrotation
								JOINT LeftHandIndex1
								{
									OFFSET 0.750000 0.000000 0.000000
									CHANNELS 3 Zrotation Yrotation Xrotation
									End Site
									{
										OFFSET 0.000000 0.000000 0.000000
									}
								}
							}
						}
					}
				}
				JOINT RightShoulder
				{
					OFFSET 0.000000 0.000000 0.000000
					CHANNELS 3 Zrotation Yrotation Xrotation
					JOINT RightArm
					{
						OFFSET -2.700000 1.550000 -0.730000
						CHANNELS 3 Zrotation Yrotation Xrotation
						JOINT RightForeArm
						{
							OFFSET -5.450000 0.000000 0.000000
							CHANNELS 3 Zrotation Yrotation Xrotation
							JOINT RightHand
							{
								OFFSET -3.450000 0.000000 0.000000
								CHANNELS 3 Zrotation Yrotation Xrotation
								JOINT RightHandIndex1
								{
									OFFSET -0.750000 0.000000 0.000000
									CHANNELS 3 Zrotation Yrotation Xrotation
									End Site
									{
										OFFSET 0.000000 0.000000 0.000000
									}
								}
							}
						}
					}
				}
			}
		}
	}
}
MOTION
Frames: 7
Frame Time: 0.016667
0.091740 17.390940 -5.568210 9.261492 -56.934234 -18.602888 -15.698638 12.383662 5.708512 29.540114 12.661213 -42.774877 -5.953019 15.943927 36.492623 0.430648 9.399990 0.908881 0.819150 0.646890 0.568870 18.273609 -9.248627 1.257897 -11.046184 4.853350 -4.920087 5.676804 -5.213691 24.291810 -0.709740 -4.086913 2.932465 0.124000 -0.315570 0.271170 -1.894345 -4.102387 -8.790895 -9.128125 11.281165 55.170082 5.019386 11.396030 6.559127 0.522531 -14.400347 -15.472071 -37.347187 24.345127 31.318534 -9.108770 5.801720 -31.813760 -21.330268 -12.941212 10.142607 -35.279241 22.300078 -17.420919 -64.438136 -30.055160 6.312889 -3.010360 3.429938 0.694310 -0.404520 0.447340 0.162650 21.148001 33.624738 7.726097 22.898543 26.734268 -10.422423 -141.484065 58.131399 -135.388950 2.223286 -1.670793 0.259500 0.101300 -0.226040 -0.084080 
0.129810 17.429620 -5.519420 7.328859 -57.757472 -17.278272 -15.639624 12.484497 5.562684 29.138655 11.892096 -41.461184 -5.848961 16.616678 39.886148 0.466792 9.702971 0.802497 0.838960 0.649550 0.599890 18.264716 -9.437205 1.417514 -9.870807 4.700846 -4.872221 5.341002 -5.100013 24.020356 -0.741333 -3.989470 2.956612 0.132790 -0.347810 0.256910 -2.162998 -3.710707 -8.697050 -6.548156 9.448255 56.235127 2.951436 10.884498 5.832804 1.065586 -14.016773 -16.052191 -38.386688 25.418176 33.325204 -8.936490 5.610530 -33.093590 -23.077773 -14.195788 9.988630 -36.013330 21.343758 -17.600425 -58.988662 -30.703638 5.577335 -2.962743 3.348250 0.761580 -0.448450 0.479340 0.152160 21.932244 33.936297 8.280457 24.833880 26.442227 -10.937030 -140.727486 60.932936 -137.372396 2.222193 -1.628248 0.239100 0.133680 -0.220540 -0.108080 
0.162890 17.460530 -5.458190 4.437966 -58.483773 -13.897180 -15.595933 12.558661 5.429840 27.460206 10.411608 -41.858334 -3.745803 17.369418 46.599556 0.588647 10.236658 0.611520 0.896090 0.715290 0.647860 18.229005 -9.654799 1.644386 -7.643287 4.794261 -6.406148 4.571554 -4.868674 24.715979 -0.765666 -3.856022 2.971681 0.163880 -0.395880 0.281050 -2.556621 -3.115519 -8.584888 -3.368943 7.134345 55.368845 0.850710 10.062024 4.573580 1.061247 -13.416038 -15.818532 -38.325738 26.202186 36.149273 -9.245190 5.895380 -33.279730 -25.821051 -14.611479 9.036858 -35.936388 18.667951 -16.209121 -50.291569 -29.325063 3.929727 -2.937311 3.323345 0.783300 -0.467890 0.526040 0.148150 24.542459 32.720059 8.535387 28.155453 25.742513 -10.959960 -141.121022 66.548812 -142.025091 2.207081 -1.677620 0.270250 0.114330 -0.239760 -0.117180 
0.201710 17.495070 -5.403940 0.600412 -58.325687 -9.813726 -15.519347 12.761075 5.098009 25.079166 8.324668 -40.614842 -2.033144 17.120207 50.717715 0.628751 10.401063 0.540826 0.922240 0.736910 0.709830 18.184432 -9.879852 2.005064 -5.122040 5.541936 -8.419534 4.562193 -4.889078 26.637003 -0.805797 -3.863510 2.935467 0.174880 -0.460310 0.278030 -2.970016 -2.652121 -8.438258 0.220265 4.405653 54.659242 -1.615348 8.786473 3.382398 1.513325 -12.562861 -15.762189 -37.244118 26.515507 39.804467 -10.526120 6.447740 -33.895200 -28.818799 -15.556762 8.280603 -34.917130 16.278619 -14.419286 -41.519862 -26.993840 2.243831 -2.888479 3.262994 0.825190 -0.497370 0.567650 0.116340 26.557317 31.608616 8.859345 31.882314 24.539146 -11.708664 -138.863324 73.124708 -144.308764 2.210780 -1.672691 0.272710 0.106910 -0.245420 -0.155040 
0.235280 17.492620 -5.347660 -3.320356 -57.695051 -4.634453 -15.493291 12.714405 4.990159 23.029053 6.358122 -40.453378 -2.499031 17.109569 52.094943 0.611712 10.489246 0.507616 0.911460 0.718170 0.741680 18.156582 -9.915558 2.323114 -2.465308 6.212246 -10.689809 4.846805 -4.996427 27.574560 -0.822331 -3.815510 2.930753 0.167260 -0.479090 0.291690 -3.302329 -2.304288 -8.418556 3.826555 2.178207 52.474724 -3.738690 7.785255 1.665018 1.950951 -11.657610 -14.606789 -35.272953 26.072448 43.174883 -12.182210 7.332960 -34.039650 -31.095109 -14.842702 6.882456 -35.476080 11.884182 -11.638683 -30.175618 -22.714366 0.491922 -2.918507 3.155279 0.858930 -0.486950 0.590130 0.088680 27.490200 29.036417 7.926554 36.409983 21.681864 -14.779867 -160.716756 82.963299 -170.993095 2.011167 -1.653401 0.257750 0.107910 -0.227860 -0.190390 
0.266200 17.477410 -5.300460 -7.710361 -57.583096 0.438392 -15.437959 12.644898 4.855022 21.732362 5.116317 -39.378920 -3.780174 16.950343 51.212085 0.550426 10.303186 0.553404 0.912320 0.709240 0.784060 18.162773 -9.988379 2.627706 0.157019 6.326813 -11.542202 5.535246 -5.072981 26.338900 -0.833457 -3.625937 2.994612 0.156870 -0.521930 0.281090 -3.650222 -1.930319 -8.399725 7.448039 0.216567 50.766335 -6.213222 7.214371 0.554076 2.696334 -10.731896 -14.563126 -33.582277 25.682511 46.363704 -12.968850 8.272350 -34.982990 -33.154901 -14.941018 5.967756 -36.744832 8.747005 -9.495069 -19.353276 -18.927160 -0.615600 -2.917266 3.028656 0.911550 -0.507200 0.620000 0.061250 27.871351 27.328407 8.198057 40.214154 19.908586 -14.268864 38.768065 89.237186 24.444914 2.112615 -1.684034 0.241950 0.109790 -0.225680 -0.232750 
0.283690 17.416890 -5.244820 -11.257809 -57.315189 5.524762 -15.349321 12.626734 4.638389 20.049481 3.853096 -37.914254 -5.264024 16.310289 48.460361 0.447585 9.766784 0.726257 0.932900 0.717350 0.830590 18.196901 -10.064015 2.927260 2.100569 6.805964 -13.246753 6.328722 -5.151527 25.685699 -0.846970 -3.472024 3.029041 0.158450 -0.570480 0.279540 -3.921187 -1.646518 -8.364257 10.549156 -1.118692 47.378511 -8.183611 6.569348 -0.759345 3.224843 -10.129633 -13.908185 -31.965760 25.016265 48.790743 -13.458340 9.403160 -35.394330 -34.953181 -13.961033 5.004759 -38.600804 6.189825 -7.466142 -9.769619 -14.537039 -1.185783 -2.939993 2.946853 0.951710 -0.531240 0.654020 0.059380 28.266801 25.149382 7.637713 44.547534 17.385149 -16.038219 29.692786 78.913926 14.117778 2.080919 -1.617533 0.235410 0.087390 -0.254180 -0.268020 
